HIERARCHY
ROOT root
{
	OFFSET 0.000000 0.000000 0.000000
	CHANNELS 6 Xposition Yposition Zposition Zrotation Yrotation Xrotation
	JOINT lhip
	{
		OFFSET 0.058581 -0.082280 -0.017664
		CHANNELS 3 Zrotation Yrotation Xrotation
		JOINT lknee
		{
			OFFSET 0.043451 -0.386469 0.008037
			CHANNELS 3 Zrotation Yrotation Xrotation
			JOINT lankle
			{
				OFFSET -0.014790 -0.426874 -0.037428
				CHANNELS 3 Zrotation Yrotation Xrotation
				JOINT ltoe
				{
					OFFSET 0.041054 -0.060286 0.122042
					CHANNELS 3 Zrotation Yrotation Xrotation
					End Site
					{
						OFFSET 0.000000 0.000000 0.000000
					}
				}
			}
		}
	}
	JOINT rhip
	{
		OFFSET -0.060310 -0.090513 -0.013543
		CHANNELS 3 Zrotation Yrotation Xrotation
		JOINT rknee
		{
			OFFSET -0.043257 -0.383688 -0.004843
			CHANNELS 3 Zrotation Yrotation Xrotation
			JOINT rankle
			{
				OFFSET 0.019056 -0.420046 -0.034562
				CHANNELS 3 Zrotation Yrotation Xrotation
				JOINT rtoe
				{
					OFFSET -0.034840 -0.062106 0.130323
					CHANNELS 3 Zrotation Yrotation Xrotation
					End Site
					{
						OFFSET 0.000000 0.000000 0.000000
					}
				}
			}
		}
	}
	JOINT lowerback
	{
		OFFSET 0.004439 0.124404 -0.038385
		CHANNELS 3 Zrotation Yrotation Xrotation
		JOINT upperback
		{
			OFFSET 0.004488 0.137956 0.026820
			CHANNELS 3 Zrotation Yrotation Xrotation
			JOINT chest
			{
				OFFSET -0.002265 0.056032 0.002855
				CHANNELS 3 Zrotation Yrotation Xrotation
				JOINT lowerneck
				{
					OFFSET -0.013390 0.211636 -0.033468
					CHANNELS 3 Zrotation Yrotation Xrotation
					JOINT upperneck
					{
						OFFSET 0.010113 0.088937 0.050410
						CHANNELS 3 Zrotation Yrotation Xrotation
						End Site
						{
							OFFSET 0.000000 0.000000 0.000000
						}
					}
				}
				JOINT lclavicle
				{
					OFFSET 0.071702 0.114000 -0.018898
					CHANNELS 3 Zrotation Yrotation Xrotation
					JOINT lshoulder
					{
						OFFSET 0.122921 0.045205 -0.019046
						CHANNELS 3 Zrotation Yrotation Xrotation
						JOINT lelbow
						{
							OFFSET 0.255332 -0.015649 -0.022946
							CHANNELS 3 Zrotation Yrotation Xrotation
							JOINT lwrist
							{
								OFFSET 0.265709 0.012698 -0.007375
								CHANNELS 3 Zrotation Yrotation Xrotation
								End Site
								{
									OFFSET 0.000000 0.000000 0.000000
								}
							}
						}
					}
				}
				JOINT rclavicle
				{
					OFFSET -0.082954 0.112472 -0.023707
					CHANNELS 3 Zrotation Yrotation Xrotation
					JOINT rshoulder
					{
						OFFSET -0.113228 0.046853 -0.008472
						CHANNELS 3 Zrotation Yrotation Xrotation
						JOINT relbow
						{
							OFFSET -0.260127 -0.014369 -0.031269
							CHANNELS 3 Zrotation Yrotation Xrotation
							JOINT rwrist
							{
								OFFSET -0.269108 0.006794 -0.006027
								CHANNELS 3 Zrotation Yrotation Xrotation
								End Site
								{
									OFFSET 0.000000 0.000000 0.000000
								}
							}
						}
					}
				}
			}
		}
	}
}
MOTION
Frames: 8
Frame Time: 0.033333
-1.070796 0.417768 1.019588 20.054116 5.516353 87.455062 -10.814220 -6.271853 -2.062547 -7.946666 -18.217889 18.586528 10.407619 6.659383 -13.702148 0.000000 -0.000000 0.000000 -2.838606 8.073164 -32.683070 -0.499332 7.538069 34.849823 9.702942 -3.795986 -8.967519 0.000000 -0.000000 0.000000 -0.990646 -4.376456 15.278442 1.779035 -0.373660 -10.423328 -1.014977 -1.638651 0.508624 2.303357 -3.044119 -7.876496 0.053781 -9.188445 9.909867 -20.082032 1.633160 -1.466433 -55.886927 -16.239308 16.479599 16.559868 -58.707316 -13.641063 6.851286 -2.602449 -30.817753 22.733971 0.565752 -4.768232 47.562815 8.526682 18.467721 -29.497194 54.767155 -23.549591 1.193832 3.666588 -18.727878 
-1.065129 0.402240 1.020112 24.336713 5.725720 88.043652 -10.469163 -6.413561 -1.187016 -8.585518 -20.785682 19.696531 9.977777 5.484083 -13.951615 0.000000 -0.000000 0.000000 -2.153666 8.270545 -34.199611 0.623981 7.688080 30.805555 11.244190 -1.582948 -7.186194 0.000000 -0.000000 0.000000 -0.831669 -4.612458 15.534381 1.788825 -0.382866 -10.516803 -1.005907 -1.757367 0.266992 2.401249 -3.459713 -8.315666 0.099005 -10.319988 9.710924 -20.101925 1.502291 -1.624981 -56.205655 -16.434286 16.837093 16.526600 -58.476583 -13.386466 6.989831 -2.635205 -29.864877 22.752897 0.519630 -4.778555 47.490506 8.387716 18.090962 -29.435300 54.700088 -23.338079 0.894237 3.588601 -18.822402 
-1.057898 0.386329 1.020385 28.311212 5.974483 88.658973 -9.898718 -6.494607 -0.385417 -9.283424 -22.947948 20.826556 9.284162 4.204732 -13.988044 0.000000 -0.000000 0.000000 -1.228784 8.422437 -35.115421 1.134921 6.933891 26.016189 12.518105 0.121603 -5.698759 0.000000 -0.000000 0.000000 -0.431725 -4.900234 15.801781 1.746390 -0.523834 -10.659307 -0.956765 -1.954134 -0.093450 2.360989 -3.658123 -8.592227 0.152887 -10.969402 9.328698 -20.142282 1.517686 -1.706003 -56.386004 -16.194119 16.786257 16.781120 -58.358733 -13.467499 6.811861 -2.739247 -29.079561 22.421387 0.738471 -4.529899 47.675760 8.460651 17.676428 -28.933161 54.714707 -22.703548 0.610850 3.486360 -19.029544 
-1.048786 0.369538 1.020384 32.037479 5.967958 89.299867 -9.431250 -6.658127 0.288731 -10.215328 -24.568028 22.160625 8.570668 2.977552 -13.781737 0.000000 -0.000000 0.000000 -0.306144 8.378167 -35.491349 1.658452 5.774621 21.347934 12.409917 0.568265 -5.440157 0.000000 -0.000000 0.000000 -0.193002 -5.197086 15.724156 1.702891 -0.805471 -10.592558 -0.954916 -2.076141 -0.410715 2.428070 -3.687641 -8.799618 0.233101 -11.294970 8.820891 -20.169395 1.693197 -1.712733 -56.256865 -15.831447 16.546101 16.952667 -58.296300 -13.647132 6.548858 -2.770226 -28.631950 22.104966 1.039056 -4.145984 48.015139 8.690745 17.345533 -28.470056 54.701744 -22.121394 0.642380 3.389603 -19.253884 
-1.037384 0.352139 1.020090 35.646473 5.601030 90.096609 -9.381570 -7.015919 0.742336 -11.238647 -25.815988 23.762232 7.971683 1.948664 -13.346966 0.000000 -0.000000 0.000000 0.413546 8.275350 -35.752745 2.486224 5.106693 18.014195 11.691089 0.197384 -5.732331 0.000000 -0.000000 0.000000 -0.270452 -5.343986 15.146751 1.709099 -1.090647 -10.401065 -1.006161 -2.188490 -0.587782 2.560432 -3.807537 -9.035376 0.336742 -11.694477 8.322534 -20.153504 1.939422 -1.619274 -56.112397 -15.591603 16.472001 17.168670 -58.102750 -13.787081 6.187349 -2.699969 -28.574100 22.075361 1.102746 -4.024763 48.274627 8.830410 17.289564 -28.218990 54.751731 -21.699916 1.013676 3.347330 -19.667510 
-1.022678 0.334296 1.019390 39.259576 5.035376 90.893384 -9.642300 -7.390390 1.190581 -12.332727 -26.822182 25.622932 7.300484 1.002644 -12.574080 0.000000 -0.000000 0.000000 0.960586 8.510509 -35.668850 3.245695 5.889612 16.595273 11.174463 0.909876 -5.981113 0.000000 -0.000000 0.000000 -0.209546 -5.473490 14.194287 1.737668 -1.450866 -9.957990 -1.248313 -2.259098 -0.865398 2.646680 -3.892296 -9.154849 0.361442 -12.072738 7.791367 -20.179751 2.065156 -1.491682 -55.929900 -15.227620 16.528492 17.403002 -57.904209 -13.984759 5.916953 -2.512737 -28.622827 22.193643 1.085439 -3.942218 48.435013 8.888569 17.288086 -28.136465 54.841224 -21.274360 1.478865 3.294142 -20.182285 
-1.004391 0.315491 1.018108 42.917601 4.400113 91.397289 -10.104711 -7.704017 2.073959 -13.394351 -27.540863 27.586516 6.481721 0.189462 -11.481211 0.000000 -0.000000 0.000000 1.428699 9.311552 -34.872040 3.649309 7.446912 17.386246 11.264820 2.263885 -6.191228 0.000000 -0.000000 0.000000 0.059912 -5.735342 13.223455 1.728771 -1.700669 -9.421528 -1.617966 -2.323053 -1.249201 2.561631 -3.986424 -9.165545 0.197604 -12.370192 7.419026 -20.294132 2.116388 -1.323648 -55.796821 -14.761297 16.615621 17.807987 -57.752738 -14.228996 5.422760 -2.476417 -28.687966 22.311530 1.064711 -3.841932 48.544476 8.769410 17.286109 -28.180308 54.896975 -20.844980 2.097086 3.253873 -20.610974 
-0.985907 0.294805 1.015457 46.005068 3.891738 92.116072 -9.718571 -7.849876 2.324497 -15.249253 -27.192278 29.981733 5.727168 -0.709970 -9.977971 0.000000 -0.000000 0.000000 2.090038 12.025392 -33.916983 3.085796 10.785054 19.329021 10.106357 3.923083 -3.687396 0.000000 -0.000000 0.000000 -0.255691 -5.896462 11.830642 2.113128 -1.377183 -9.064673 -1.713728 -2.288950 -1.558075 2.257820 -4.282076 -8.806497 -0.051437 -12.291619 7.195459 -20.526352 2.176673 -1.055703 -55.470768 -14.138379 16.732569 18.202108 -57.842675 -14.482959 4.843625 -2.471785 -28.992671 22.387806 0.834959 -3.636644 48.645577 8.507566 17.587154 -28.355315 54.984855 -20.317659 2.779783 3.216541 -21.638430 
